<svg width="36" height="24" viewBox="0 0 36 24" fill="none" xmlns="http://www.w3.org/2000/svg">
<path d="M0.134496 23.7293C0.134496 22.4662 0.104608 21.1579 0.0448319 19.8045C0.014944 18.4511 0 17.0977 0 15.7444C0 13.7293 0.0896638 11.7895 0.268991 9.92481C0.478207 8.03008 0.911582 6.3609 1.56912 4.91729C2.22665 3.44361 3.16812 2.27068 4.39352 1.3985C5.61893 0.496241 7.26276 0.0300752 9.32503 0L12.5081 6.45113C11.7609 6.54135 11.0286 6.7218 10.3113 6.99248C9.62391 7.26316 8.99626 7.62406 8.42839 8.07519C7.89041 8.49624 7.45704 9.00752 7.12827 9.60902C6.7995 10.1805 6.62017 10.8271 6.59029 11.5489H12.3288V23.7293H0.134496Z" fill="#E5D1C3"/>
<path d="M23.4919 17.5038C24.2391 17.4436 24.9714 17.2782 25.6887 17.0075C26.406 16.7368 27.0336 16.391 27.5716 15.9699C28.1096 15.5489 28.543 15.0376 28.8717 14.4361C29.2304 13.8346 29.4247 13.1729 29.4545 12.4511H23.7161V0.225564H35.8655C35.8655 1.48872 35.8805 2.79699 35.9103 4.15038C35.9701 5.50376 36 6.87218 36 8.25564C36 10.2406 35.8954 12.1805 35.6862 14.0752C35.5069 15.9398 35.0884 17.609 34.4309 19.0827C33.7733 20.5564 32.8319 21.7444 31.6065 22.6466C30.3811 23.5188 28.7372 23.9699 26.675 24L23.4919 17.5038Z" fill="#E5D1C3"/>
</svg>
