<svg width="26" height="26" viewBox="0 0 26 26" fill="none" xmlns="http://www.w3.org/2000/svg">
<g clip-path="url(#clip0)">
<path d="M10.7658 15.2337C8.28415 12.7521 7.72381 10.2704 7.5974 9.27615C7.56207 9.00123 7.65668 8.72553 7.85336 8.53022L9.86164 6.52284C10.1571 6.22761 10.2095 5.76749 9.98805 5.41336L6.7905 0.448258C6.54552 0.0561286 6.04252 -0.0853949 5.62902 0.121465L0.49581 2.53902C0.161423 2.70367 -0.0352593 3.05895 0.0027067 3.42974C0.271672 5.98491 1.38564 12.2662 7.5584 18.4394C13.7312 24.6126 20.0115 25.7261 22.568 25.995C22.9388 26.033 23.2941 25.8363 23.4587 25.5019L25.8763 20.3687C26.0824 19.9561 25.9418 19.4545 25.5513 19.209L20.5862 16.0124C20.2323 15.7907 19.7722 15.8428 19.4767 16.1379L17.4693 18.1462C17.274 18.3429 16.9983 18.4375 16.7234 18.4022C15.7291 18.2757 13.2475 17.7154 10.7658 15.2337Z" fill="#373739"/>
<path d="M20.6198 13.8966C20.1246 13.8966 19.7232 13.4952 19.7232 13C19.719 9.28813 16.711 6.28009 12.9991 6.27589C12.5039 6.27589 12.1025 5.87449 12.1025 5.37934C12.1025 4.88419 12.5039 4.48279 12.9991 4.48279C17.7009 4.48798 21.5111 8.29824 21.5163 13C21.5163 13.4952 21.1149 13.8966 20.6198 13.8966Z" fill="#373739"/>
<path d="M25.1026 13.8966C24.6074 13.8966 24.206 13.4952 24.206 13C24.1991 6.81347 19.1856 1.80002 12.9991 1.7931C12.5039 1.7931 12.1025 1.3917 12.1025 0.896552C12.1025 0.4014 12.5039 0 12.9991 0C20.1755 0.00790574 25.9912 5.82358 25.9991 13C25.9991 13.2378 25.9047 13.4658 25.7365 13.634C25.5684 13.8021 25.3403 13.8966 25.1026 13.8966Z" fill="#373739"/>
</g>
<defs>
<clipPath id="clip0">
<rect width="26" height="26" fill="white"/>
</clipPath>
</defs>
</svg>
