<svg width="127" height="53" viewBox="0 0 127 53" fill="none" xmlns="http://www.w3.org/2000/svg">
    <g clip-path="url(#clip0)">
        <path class="main-title-logo" d="M17.9279 19.9775L2.89914 0.358398H0V25.2424H2.84072V5.14799L18.3515 25.2424H20.7687V0.358398H17.9279V19.9775Z" fill="#434345"/>
        <path class="main-title-logo" d="M46.6055 2.3026e-05C44.9209 -0.0543261 43.2434 0.24263 41.6795 0.872042C40.1156 1.50145 38.6995 2.44957 37.5211 3.6562C36.3393 4.85935 35.4126 6.2892 34.7964 7.85991C34.1803 9.43062 33.8874 11.1098 33.9355 12.7967C33.8685 14.4858 34.1495 16.1706 34.7611 17.7462C35.3727 19.3219 36.3017 20.7545 37.4903 21.955C38.6789 23.1554 40.1016 24.098 41.6698 24.7239C43.238 25.3499 44.9181 25.6458 46.6055 25.5933C48.2845 25.6374 49.9546 25.3356 51.5123 24.7067C53.0699 24.0777 54.482 23.1351 55.6608 21.9371C56.8607 20.7411 57.8036 19.3119 58.4315 17.7375C59.0594 16.1631 59.3591 14.4767 59.3121 12.782C59.3762 11.0912 59.0918 9.40529 58.4767 7.82935C57.8616 6.2534 56.929 4.82119 55.7368 3.622C54.5447 2.42281 53.1187 1.48234 51.5477 0.859188C49.9767 0.236039 48.2944 -0.0564252 46.6055 2.3026e-05ZM53.4408 19.9043C52.5725 20.8424 51.5125 21.5821 50.333 22.073C49.1534 22.5639 47.8821 22.7944 46.6055 22.7488C45.3442 22.7751 44.0916 22.5339 42.9299 22.0412C41.7683 21.5484 40.7238 20.8152 39.8652 19.8896C38.9621 18.9481 38.2549 17.8361 37.7848 16.6185C37.3147 15.4008 37.091 14.1017 37.1267 12.7967C37.0805 11.4858 37.2956 10.1789 37.7596 8.95224C38.2235 7.7256 38.9269 6.60383 39.8287 5.65248C40.715 4.76015 41.7686 4.05204 42.9291 3.56884C44.0896 3.08565 45.3341 2.8369 46.5909 2.8369C47.8477 2.8369 49.0922 3.08565 50.2527 3.56884C51.4132 4.05204 52.4669 4.76015 53.3531 5.65248C54.2608 6.60097 54.97 7.72158 55.4391 8.94845C55.9081 10.1753 56.1275 11.4837 56.0843 12.7967C56.1659 15.421 55.2168 17.9727 53.4408 19.9043Z" fill="#434345"/>
        <path class="main-title-logo" d="M82.8047 9.64496e-05C81.1189 -0.0548278 79.4401 0.241836 77.875 0.871251C76.3098 1.50067 74.8925 2.44908 73.7129 3.65628C72.5286 4.8586 71.5987 6.2878 70.9788 7.85835C70.359 9.42891 70.0619 11.1085 70.1054 12.7967C70.0513 14.4999 70.3476 16.196 70.9757 17.7798C71.6038 19.3635 72.5504 20.801 73.7567 22.003C75.5448 23.805 77.8306 25.0298 80.3198 25.5197C82.8091 26.0096 85.3878 25.7422 87.7239 24.7519C90.0601 23.7616 92.0467 22.0937 93.4281 19.9631C94.8094 17.8324 95.5222 15.3365 95.4747 12.7967C95.5417 11.1076 95.2606 9.42277 94.649 7.84715C94.0375 6.27152 93.1084 4.83886 91.9198 3.6384C90.7313 2.43794 89.3086 1.49538 87.7404 0.869438C86.1722 0.243494 84.492 -0.0524299 82.8047 9.64496e-05ZM89.6326 19.9043C88.7485 20.8098 87.6926 21.5292 86.527 22.0203C85.3613 22.5115 84.1094 22.7645 82.8448 22.7645C81.5802 22.7645 80.3283 22.5115 79.1627 22.0203C77.997 21.5292 76.9412 20.8098 76.057 19.9043C75.1552 18.9622 74.4494 17.85 73.9805 16.6323C73.5117 15.4147 73.2891 14.1159 73.3258 12.8114C73.2799 11.5012 73.4944 10.1949 73.957 8.96843C74.4196 7.74198 75.121 6.61983 76.0205 5.66718C76.9068 4.77485 77.9605 4.06674 79.121 3.58354C80.2815 3.10034 81.5259 2.8516 82.7827 2.8516C84.0396 2.8516 85.284 3.10034 86.4445 3.58354C87.605 4.06674 88.6587 4.77485 89.545 5.66718C90.4536 6.61238 91.164 7.73016 91.6343 8.95464C92.1046 10.1791 92.3253 11.4855 92.2835 12.7967C92.3654 15.4224 91.4133 17.9752 89.6326 19.9043Z" fill="#434345"/>
        <path class="main-title-logo" d="M122.545 12.284C123.622 10.9954 124.191 9.35684 124.144 7.67722C124.144 2.74869 121.192 0.284424 115.286 0.284424H112.197H108.612V25.1465H111.628V15.2821H115.673L123.305 25.2415H127L118.726 14.719C120.226 14.3363 121.564 13.4831 122.545 12.284ZM115.286 12.4449H111.635V3.20206C113.198 3.15087 114.359 3.12893 115.111 3.12893C119.006 3.12893 120.953 4.65722 120.953 7.71378C120.97 8.37941 120.825 9.03917 120.531 9.63649C120.238 10.2338 119.804 10.7508 119.266 11.1433C118.124 12.0113 116.72 12.4651 115.286 12.4303" fill="#434345"/>
        <path d="M83.4982 51.3182C83.6696 51.5438 83.8798 51.7369 84.1189 51.8886C84.3826 52.0406 84.684 52.1142 84.9879 52.1006C85.1379 52.1017 85.2875 52.0845 85.4334 52.0495C85.5813 52.0235 85.7227 51.9688 85.8496 51.8886C85.9691 51.8198 86.0715 51.7248 86.1491 51.6107C86.2238 51.4901 86.2618 51.3504 86.2586 51.2085C86.2671 51.0717 86.2313 50.9358 86.1564 50.821C86.0801 50.7195 85.9861 50.6328 85.8789 50.565C85.7532 50.4928 85.618 50.4386 85.4772 50.4042L85.0244 50.2872C84.7469 50.2287 84.4914 50.1629 84.2431 50.0897C84.0109 50.025 83.7894 49.9264 83.5858 49.7972C83.4021 49.6791 83.2494 49.5187 83.1404 49.3293C83.0218 49.1043 82.9639 48.8522 82.9724 48.598C82.9706 48.3418 83.0361 48.0897 83.1623 47.8668C83.2858 47.6539 83.4555 47.4715 83.6589 47.333C83.8828 47.186 84.1296 47.0772 84.3891 47.0112C84.648 46.9375 84.916 46.9006 85.1851 46.9015C85.5811 46.8969 85.973 46.9819 86.3316 47.1502C86.6877 47.3199 86.9778 47.6027 87.1568 47.9545L86.3462 48.4883C86.2243 48.2845 86.0568 48.1118 85.8569 47.9838C85.6357 47.8541 85.383 47.7883 85.1267 47.7937C84.9911 47.7931 84.8561 47.8103 84.725 47.8448C84.5955 47.8711 84.4718 47.9207 84.3599 47.9911C84.2531 48.0568 84.1611 48.1439 84.0897 48.247C84.0211 48.3538 83.9855 48.4784 83.9875 48.6053C83.9833 48.7215 84.0253 48.8346 84.1043 48.9198C84.1954 49.0159 84.3046 49.0929 84.4256 49.1464C84.5785 49.2186 84.7373 49.2773 84.9003 49.3219C85.08 49.3753 85.2629 49.4169 85.448 49.4463C85.6948 49.4957 85.9386 49.5592 86.1783 49.6364C86.3985 49.7104 86.6055 49.819 86.7917 49.9581C86.9632 50.0914 87.1029 50.2612 87.2006 50.4554C87.3051 50.7058 87.3546 50.9758 87.3458 51.247C87.337 51.5183 87.27 51.7844 87.1495 52.0275C87.0222 52.2569 86.8419 52.4525 86.6237 52.5979C86.3991 52.742 86.1524 52.8482 85.8935 52.9123C85.6161 52.9795 85.3317 53.0138 85.0464 53.0147C84.6065 53.0244 84.1693 52.9448 83.7611 52.7807C83.3387 52.6006 82.9783 52.3006 82.7241 51.9178L83.4982 51.3182Z" fill="#434345"/>
        <path d="M93.9263 47.8522H92.2175V50.7771C92.2175 50.9672 92.2175 51.1427 92.2175 51.3036C92.2205 51.4499 92.2528 51.5941 92.3124 51.7277C92.3728 51.8448 92.4636 51.9433 92.5753 52.0129C92.7294 52.0889 92.9003 52.1241 93.0719 52.1153C93.217 52.1159 93.3617 52.0987 93.5027 52.0641C93.65 52.0353 93.7926 51.9861 93.9263 51.9179L93.9628 52.8026C93.7847 52.8778 93.5984 52.9318 93.4078 52.9635C93.217 52.9944 93.0242 53.0115 92.8309 53.0147C92.5493 53.0236 92.2688 52.9764 92.0057 52.8758C91.8098 52.7947 91.6403 52.6605 91.5164 52.4882C91.3956 52.3032 91.3182 52.0932 91.29 51.874C91.2503 51.6053 91.2307 51.3339 91.2316 51.0623V47.8522H89.9683V47.0332H91.2827V45.3806H92.254V47.0332H93.9628L93.9263 47.8522Z" fill="#434345"/>
        <path d="M102.273 51.4718C102.273 51.7351 102.273 51.9837 102.273 52.2031C102.273 52.4224 102.273 52.6418 102.273 52.8319H101.353C101.353 52.6784 101.353 52.5175 101.353 52.3639C101.353 52.2104 101.353 52.0422 101.353 51.874C101.282 52.0258 101.186 52.1643 101.068 52.2835C100.946 52.4237 100.803 52.5446 100.645 52.6418C100.468 52.7478 100.279 52.8313 100.082 52.8904C99.8663 52.9527 99.6427 52.9847 99.4178 52.9855C99.0808 52.9934 98.7456 52.9338 98.432 52.81C98.1545 52.708 97.9045 52.5428 97.7017 52.3274C97.5184 52.1143 97.3816 51.8652 97.3001 51.5961C97.2095 51.2825 97.1652 50.9573 97.1686 50.6309V47.0332H98.1399V50.5285C98.1197 50.9383 98.2324 51.3436 98.4612 51.6839C98.5839 51.8287 98.7393 51.9421 98.9146 52.0146C99.0899 52.0871 99.28 52.1166 99.469 52.1007C99.7478 52.109 100.025 52.054 100.28 51.9398C100.501 51.8367 100.692 51.678 100.835 51.4791C100.991 51.2604 101.101 51.0113 101.156 50.7479C101.231 50.4517 101.268 50.1469 101.265 49.8412V47.0332H102.229L102.273 51.4718Z" fill="#434345"/>
        <path d="M111.036 51.8153C110.824 52.172 110.515 52.4611 110.145 52.6489C109.729 52.883 109.257 53.0016 108.78 52.9926C108.386 52.9943 107.995 52.9146 107.633 52.7586C107.287 52.6106 106.974 52.3942 106.713 52.1224C106.447 51.8413 106.239 51.5109 106.1 51.1499C105.951 50.7655 105.879 50.3555 105.888 49.9433C105.883 49.5254 105.959 49.1104 106.114 48.7222C106.252 48.3607 106.463 48.0319 106.735 47.7569C107.005 47.4768 107.331 47.2574 107.692 47.1135C108.089 46.9577 108.513 46.8807 108.94 46.8868C109.342 46.883 109.739 46.9705 110.102 47.1427C110.455 47.3203 110.769 47.5693 111.022 47.8739V43.4573H111.986V52.8464H111.022L111.036 51.8153ZM111.036 49.9433C111.038 49.6518 110.988 49.3623 110.89 49.0878C110.8 48.8349 110.658 48.6035 110.474 48.4077C110.293 48.2094 110.071 48.0523 109.824 47.9471C109.557 47.8325 109.268 47.7752 108.977 47.7789C108.684 47.7759 108.393 47.8332 108.123 47.9471C107.877 48.0549 107.656 48.2117 107.472 48.4078C107.289 48.6039 107.148 48.8352 107.056 49.0878C106.961 49.3627 106.914 49.6523 106.918 49.9433C106.914 50.2321 106.961 50.5192 107.056 50.7916C107.145 51.0453 107.287 51.2771 107.473 51.4716C107.655 51.6683 107.877 51.8252 108.123 51.9323C108.392 52.0496 108.683 52.107 108.977 52.1005C109.268 52.1078 109.558 52.0504 109.824 51.9323C110.07 51.8244 110.291 51.6677 110.474 51.4716C110.657 51.2755 110.799 51.0441 110.89 50.7916C110.988 50.5196 111.038 50.2325 111.036 49.9433Z" fill="#434345"/>
        <path d="M115.761 44.7589C115.76 44.6666 115.778 44.5749 115.813 44.4895C115.848 44.404 115.9 44.3266 115.966 44.2617C116.03 44.1933 116.109 44.1392 116.195 44.1027C116.282 44.0662 116.375 44.0481 116.47 44.0497C116.563 44.0482 116.655 44.0664 116.74 44.1029C116.826 44.1394 116.903 44.1935 116.966 44.2617C117.096 44.3977 117.168 44.5784 117.168 44.7663C117.168 44.9541 117.096 45.1348 116.966 45.2708C116.863 45.3618 116.736 45.4218 116.601 45.444C116.465 45.4661 116.326 45.4495 116.2 45.3961C116.073 45.3426 115.964 45.2544 115.885 45.1417C115.806 45.029 115.761 44.8964 115.754 44.7589H115.761ZM115.973 47.0331H116.944V52.883H115.973V47.0331Z" fill="#434345"/>
        <path d="M120.632 49.9434C120.626 49.5169 120.708 49.0936 120.873 48.7003C121.021 48.3389 121.239 48.0107 121.516 47.7351C121.797 47.4619 122.129 47.2481 122.494 47.1062C123.297 46.8158 124.175 46.8158 124.977 47.1062C125.342 47.2481 125.675 47.4619 125.956 47.7351C126.235 48.01 126.456 48.3382 126.606 48.7003C126.917 49.4998 126.917 50.3871 126.606 51.1865C126.453 51.545 126.232 51.8704 125.956 52.1445C125.677 52.4208 125.344 52.6351 124.977 52.7733C124.177 53.0753 123.294 53.0753 122.494 52.7733C122.128 52.6351 121.794 52.4208 121.516 52.1445C121.241 51.8701 121.023 51.5447 120.873 51.1865C120.709 50.7931 120.627 50.37 120.632 49.9434ZM121.676 49.9434C121.675 50.2326 121.724 50.5197 121.822 50.7917C121.915 51.0416 122.058 51.2701 122.241 51.4636C122.424 51.6571 122.644 51.8116 122.889 51.9178C123.157 52.0304 123.445 52.0884 123.736 52.0884C124.027 52.0884 124.315 52.0304 124.583 51.9178C124.83 51.8115 125.053 51.6553 125.238 51.4591C125.423 51.2629 125.565 51.0307 125.656 50.7771C125.752 50.5047 125.799 50.2175 125.795 49.9288C125.799 49.6377 125.752 49.3482 125.656 49.0733C125.566 48.8204 125.424 48.5889 125.24 48.3932C125.056 48.1947 124.832 48.0377 124.583 47.9325C124.315 47.8199 124.027 47.7619 123.736 47.7619C123.445 47.7619 123.157 47.8199 122.889 47.9325C122.642 48.0378 122.42 48.1949 122.239 48.3932C122.055 48.5889 121.913 48.8204 121.822 49.0733C121.724 49.3478 121.675 49.6373 121.676 49.9288" fill="#434345"/>
    </g>
    <defs>
        <clipPath id="clip0">
            <rect width="127" height="53" fill="white"/>
        </clipPath>
    </defs>
</svg>